<svg width="52" height="49" viewBox="0 0 52 49" fill="none" xmlns="http://www.w3.org/2000/svg">
<ellipse cx="26" cy="24.5" rx="26" ry="24.5" fill="white"/>
<path d="M20.5 38.5833C21.1444 38.5833 21.6667 38.0423 21.6667 37.375C21.6667 36.7077 21.1444 36.1667 20.5 36.1667C19.8557 36.1667 19.3334 36.7077 19.3334 37.375C19.3334 38.0423 19.8557 38.5833 20.5 38.5833Z" stroke="black" stroke-width="2" stroke-linecap="round" stroke-linejoin="round"/>
<path d="M33.3333 38.5833C33.9776 38.5833 34.5 38.0423 34.5 37.375C34.5 36.7077 33.9776 36.1667 33.3333 36.1667C32.689 36.1667 32.1666 36.7077 32.1666 37.375C32.1666 38.0423 32.689 38.5833 33.3333 38.5833Z" stroke="black" stroke-width="2" stroke-linecap="round" stroke-linejoin="round"/>
<path d="M11.1666 13.2083H15.8333L18.96 29.3879C19.0666 29.9442 19.3589 30.444 19.7854 30.7996C20.212 31.1553 20.7458 31.3442 21.2933 31.3333H32.6333C33.1808 31.3442 33.7146 31.1553 34.1412 30.7996C34.5677 30.444 34.8599 29.9442 34.9666 29.3879L36.8333 19.25H17" stroke="black" stroke-width="2" stroke-linecap="round" stroke-linejoin="round"/>
</svg>
