<svg width="27" height="26" viewBox="0 0 27 26" fill="none" xmlns="http://www.w3.org/2000/svg">
<path d="M9.03845 12.6332V6.72177" stroke="white" stroke-miterlimit="10" stroke-linecap="round" stroke-linejoin="round"/>
<path d="M9.03845 25V21.2899" stroke="white" stroke-miterlimit="10" stroke-linecap="round" stroke-linejoin="round"/>
<path d="M17.6953 25V6.72177" stroke="white" stroke-miterlimit="10" stroke-linecap="round" stroke-linejoin="round"/>
<path d="M11.0173 4.34739C11.0173 4.95336 10.7699 5.52226 10.3618 5.918C9.96608 6.32611 9.40955 6.57341 8.79121 6.57341H6.00867C6.35494 6.11583 6.56519 5.52225 6.56519 4.90391V3.79087C6.56519 3.17252 6.35494 2.57894 6.00867 2.12137H8.79121C10.0155 2.12137 11.0173 3.12307 11.0173 4.34739Z" stroke="white" stroke-miterlimit="10" stroke-linecap="round" stroke-linejoin="round"/>
<path d="M6.56508 3.7909V4.90395C6.56508 5.52229 6.35483 6.11586 6.00856 6.57344C5.06868 7.82249 3.13946 8.24296 1.34627 6.64764C1.1484 6.4745 1 6.10353 1 5.83146V2.93759C1 2.70262 1.12368 2.35636 1.28445 2.18322C2.84267 0.550798 4.72242 0.785793 5.74887 1.81224C5.83543 1.89881 5.92199 1.99773 6.00856 2.10903C6.35483 2.57897 6.56508 3.17256 6.56508 3.7909Z" stroke="white" stroke-miterlimit="10" stroke-linecap="round" stroke-linejoin="round"/>
<path d="M15.7164 4.34739C15.7164 4.95336 15.9638 5.52226 16.3719 5.918C16.7676 6.32611 17.3241 6.57341 17.9425 6.57341H20.725C20.3787 6.11583 20.1685 5.52225 20.1685 4.90391V3.79087C20.1685 3.17252 20.3787 2.57894 20.725 2.12137H17.9425C16.7181 2.12137 15.7164 3.12307 15.7164 4.34739Z" stroke="white" stroke-miterlimit="10" stroke-linecap="round" stroke-linejoin="round"/>
<path d="M20.1686 3.7909V4.90395C20.1686 5.52229 20.3788 6.11586 20.7251 6.57344C21.665 7.82249 23.5942 8.24296 25.3874 6.64764C25.5853 6.4745 25.7337 6.10353 25.7337 5.83146V2.93759C25.7337 2.70262 25.61 2.35636 25.4492 2.18322C23.891 0.550798 22.0112 0.785793 20.9848 1.81224C20.8982 1.89881 20.8117 1.99773 20.7251 2.10903C20.3788 2.57897 20.1686 3.17256 20.1686 3.7909Z" stroke="white" stroke-miterlimit="10" stroke-linecap="round" stroke-linejoin="round"/>
<path d="M10.8935 14.4882V19.4349C10.8935 20.4614 10.0649 21.2899 9.03844 21.2899C8.01199 21.2899 7.18341 20.4614 7.18341 19.4349V14.4882C7.18341 13.4617 8.01199 12.6331 9.03844 12.6331C10.0649 12.6331 10.8935 13.4617 10.8935 14.4882Z" stroke="white" stroke-miterlimit="10" stroke-linecap="round" stroke-linejoin="round"/>
</svg>
