<svg width="27" height="28" viewBox="0 0 27 28" fill="none" xmlns="http://www.w3.org/2000/svg">
<path d="M26.4009 11.8031L24.5648 9.66996C24.2138 9.26493 23.9302 8.50889 23.9302 7.96885V5.67372C23.9302 4.24263 22.7557 3.06806 21.3246 3.06806H19.0294C18.5029 3.06806 17.7334 2.78454 17.3283 2.43352L15.1952 0.597411C14.2637 -0.199137 12.7381 -0.199137 11.793 0.597411L9.67333 2.44702C9.26831 2.78454 8.49876 3.06806 7.97223 3.06806H5.63659C4.2055 3.06806 3.03093 4.24263 3.03093 5.67372V7.98235C3.03093 8.50889 2.74741 9.26493 2.40989 9.66996L0.587285 11.8166C-0.195762 12.7482 -0.195762 14.2602 0.587285 15.1918L2.40989 17.3384C2.74741 17.7435 3.03093 18.4995 3.03093 19.026V21.3347C3.03093 22.7658 4.2055 23.9403 5.63659 23.9403H7.97223C8.49876 23.9403 9.26831 24.2238 9.67333 24.5749L11.8065 26.411C12.7381 27.2075 14.2637 27.2075 15.2087 26.411L17.3418 24.5749C17.7469 24.2238 18.5029 23.9403 19.0429 23.9403H21.3381C22.7692 23.9403 23.9437 22.7658 23.9437 21.3347V19.0395C23.9437 18.513 24.2273 17.7435 24.5783 17.3384L26.4144 15.2053C27.1974 14.2737 27.1974 12.7347 26.4009 11.8031ZM19.1105 10.9525L12.5896 17.4734C12.4005 17.6624 12.144 17.7705 11.874 17.7705C11.604 17.7705 11.3475 17.6624 11.1585 17.4734L7.89122 14.2062C7.4997 13.8147 7.4997 13.1667 7.89122 12.7752C8.28275 12.3836 8.93079 12.3836 9.32231 12.7752L11.874 15.3268L17.6794 9.52145C18.0709 9.12992 18.7189 9.12992 19.1105 9.52145C19.502 9.91297 19.502 10.561 19.1105 10.9525Z" fill="white"/>
</svg>
