<svg width="26" height="32" viewBox="0 0 26 32" fill="none" xmlns="http://www.w3.org/2000/svg">
<path d="M25 8.5V23.5C25 29.5 23.5 31 17.5 31H8.5C2.5 31 1 29.5 1 23.5V8.5C1 2.5 2.5 1 8.5 1H17.5C23.5 1 25 2.5 25 8.5Z" stroke="white" stroke-linecap="round" stroke-linejoin="round"/>
<path d="M16 6.25H10" stroke="white" stroke-linecap="round" stroke-linejoin="round"/>
<path d="M12.9999 26.65C14.284 26.65 15.325 25.609 15.325 24.325C15.325 23.041 14.284 22 12.9999 22C11.7158 22 10.6749 23.041 10.6749 24.325C10.6749 25.609 11.7158 26.65 12.9999 26.65Z" stroke="white" stroke-linecap="round" stroke-linejoin="round"/>
</svg>
